<svg width="20" height="20" viewBox="0 0 20 20" fill="none" xmlns="http://www.w3.org/2000/svg">
	<path d="M6.04224 4.16663V1.66663C6.04224 1.32496 6.32557 1.04163 6.66724 1.04163C7.0089 1.04163 7.29224 1.32496 7.29224 1.66663V4.16663C7.29224 4.50829 7.0089 4.79163 6.66724 4.79163C6.32557 4.79163 6.04224 4.50829 6.04224 4.16663Z" fill="currentColor" />
	<path d="M12.7078 4.16663V1.66663C12.7078 1.32496 12.9911 1.04163 13.3328 1.04163C13.6744 1.04163 13.9578 1.32496 13.9578 1.66663V4.16663C13.9578 4.50829 13.6744 4.79163 13.3328 4.79163C12.9911 4.79163 12.7078 4.50829 12.7078 4.16663Z" fill="currentColor" />
	<path d="M6.76618 12.0157C6.65784 11.974 6.57451 11.9157 6.49118 11.8407C6.34118 11.6824 6.24951 11.474 6.24951 11.249C6.24951 11.1407 6.27451 11.0324 6.31618 10.9324C6.35785 10.8324 6.41618 10.7407 6.49118 10.6574C6.57451 10.5824 6.65784 10.524 6.76618 10.4824C7.06618 10.3574 7.44118 10.424 7.67451 10.6574C7.82451 10.8157 7.91618 11.0324 7.91618 11.249C7.91618 11.299 7.90784 11.3574 7.89951 11.4157C7.89118 11.4657 7.87451 11.5157 7.84951 11.5657C7.83284 11.6157 7.80785 11.6657 7.77451 11.7157C7.74951 11.7574 7.70784 11.799 7.67451 11.8407C7.51618 11.9907 7.29951 12.0824 7.08284 12.0824C6.97451 12.0824 6.86618 12.0574 6.76618 12.0157Z" fill="currentColor" />
	<path d="M9.68366 12.0166C9.57532 11.9749 9.49199 11.9166 9.40866 11.8416C9.25866 11.6833 9.16699 11.4749 9.16699 11.2499C9.16699 11.1416 9.19199 11.0333 9.23366 10.9333C9.27533 10.8333 9.33366 10.7416 9.40866 10.6583C9.49199 10.5833 9.57532 10.5249 9.68366 10.4832C9.98366 10.3499 10.3587 10.4249 10.592 10.6583C10.742 10.8166 10.8337 11.0333 10.8337 11.2499C10.8337 11.2999 10.8253 11.3583 10.817 11.4166C10.8087 11.4666 10.792 11.5166 10.767 11.5666C10.7503 11.6166 10.7253 11.6666 10.692 11.7166C10.667 11.7583 10.6253 11.7999 10.592 11.8416C10.4337 11.9916 10.217 12.0833 10.0003 12.0833C9.89199 12.0833 9.78366 12.0583 9.68366 12.0166Z" fill="currentColor" />
	<path d="M12.6009 12.0166C12.4926 11.9749 12.4092 11.9166 12.3259 11.8416C12.2926 11.7999 12.2592 11.7583 12.2259 11.7166C12.1926 11.6666 12.1676 11.6166 12.1509 11.5666C12.1259 11.5166 12.1092 11.4666 12.1009 11.4166C12.0926 11.3583 12.0842 11.2999 12.0842 11.2499C12.0842 11.0333 12.1759 10.8166 12.3259 10.6583C12.4092 10.5833 12.4926 10.5249 12.6009 10.4832C12.9092 10.3499 13.2759 10.4249 13.5092 10.6583C13.6592 10.8166 13.7509 11.0333 13.7509 11.2499C13.7509 11.2999 13.7426 11.3583 13.7342 11.4166C13.7259 11.4666 13.7092 11.5166 13.6842 11.5666C13.6676 11.6166 13.6426 11.6666 13.6092 11.7166C13.5842 11.7583 13.5426 11.7999 13.5092 11.8416C13.3509 11.9916 13.1342 12.0833 12.9176 12.0833C12.8092 12.0833 12.7009 12.0583 12.6009 12.0166Z" fill="currentColor" />
	<path d="M6.76618 14.9325C6.66618 14.8909 6.57451 14.8325 6.49118 14.7575C6.34118 14.5992 6.24951 14.3825 6.24951 14.1659C6.24951 14.0575 6.27451 13.9492 6.31618 13.8492C6.35785 13.7409 6.41618 13.6492 6.49118 13.5742C6.79951 13.2659 7.36618 13.2659 7.67451 13.5742C7.82451 13.7325 7.91618 13.9492 7.91618 14.1659C7.91618 14.3825 7.82451 14.5992 7.67451 14.7575C7.51618 14.9075 7.29951 14.9992 7.08284 14.9992C6.97451 14.9992 6.86618 14.9742 6.76618 14.9325Z" fill="currentColor" />
	<path d="M9.40866 14.7575C9.25866 14.5992 9.16699 14.3825 9.16699 14.1659C9.16699 14.0575 9.19199 13.9492 9.23366 13.8492C9.27533 13.7409 9.33366 13.6492 9.40866 13.5742C9.71699 13.2659 10.2837 13.2659 10.592 13.5742C10.667 13.6492 10.7253 13.7409 10.767 13.8492C10.8087 13.9492 10.8337 14.0575 10.8337 14.1659C10.8337 14.3825 10.742 14.5992 10.592 14.7575C10.4337 14.9075 10.217 14.9992 10.0003 14.9992C9.78366 14.9992 9.56699 14.9075 9.40866 14.7575Z" fill="currentColor" />
	<path d="M12.3259 14.7573C12.2509 14.6823 12.1926 14.5907 12.1509 14.4823C12.1092 14.3823 12.0842 14.274 12.0842 14.1657C12.0842 14.0573 12.1092 13.949 12.1509 13.849C12.1926 13.7407 12.2509 13.649 12.3259 13.574C12.5176 13.3824 12.8092 13.2907 13.0759 13.349C13.1342 13.3573 13.1842 13.374 13.2342 13.399C13.2842 13.4157 13.3342 13.4407 13.3842 13.474C13.4259 13.499 13.4676 13.5407 13.5092 13.574C13.6592 13.7324 13.7509 13.949 13.7509 14.1657C13.7509 14.3823 13.6592 14.599 13.5092 14.7573C13.3509 14.9073 13.1342 14.999 12.9176 14.999C12.7009 14.999 12.4842 14.9073 12.3259 14.7573Z" fill="currentColor" />
	<path d="M2.9165 8.2001C2.57484 8.2001 2.2915 7.91677 2.2915 7.5751C2.2915 7.23344 2.57484 6.9501 2.9165 6.9501H17.0832C17.4248 6.9501 17.7082 7.23344 17.7082 7.5751C17.7082 7.91677 17.4248 8.2001 17.0832 8.2001H2.9165Z" fill="currentColor" />
	<path fill-rule="evenodd" clip-rule="evenodd" d="M6.66569 18.9584C3.62402 18.9584 1.87402 17.2084 1.87402 14.1667V7.08341C1.87402 4.04175 3.62402 2.29175 6.66569 2.29175H13.3324C16.374 2.29175 18.124 4.04175 18.124 7.08341V14.1667C18.124 17.2084 16.374 18.9584 13.3324 18.9584H6.66569ZM3.12402 7.08341V14.1667C3.12402 16.5501 4.28236 17.7084 6.66569 17.7084H13.3324C15.7157 17.7084 16.874 16.5501 16.874 14.1667V7.08341C16.874 4.70008 15.7157 3.54175 13.3324 3.54175H6.66569C4.28236 3.54175 3.12402 4.70008 3.12402 7.08341Z" fill="currentColor" />
</svg>
